[img]http://img836.imageshack.us/img836/445/reignoffire2002320x200.jpg[/img]
 
http://www.imdb.com/title/tt0253556/

Source: Reign.Of.Fire.2002.1080p.BluRay.x264-CiNEFiLE

Subs: Arabic, Croatian, Dutch, English, Greek, Portuguese, Romanian, Serbian, Slovenian, Spanish, Swedish, Vietnamese.

Screens and Sample included.

General
Complete name                    : Reign of Fire 2002-MP4 AAC-BRRip-Multisubs-CC\Reign of Fire 2002-MP4 AAC-BRRip-CC.mp4
Format                           : MPEG-4
Format profile                   : Base Media
Codec ID                         : isom
File size                        : 1.55 GiB
Duration                         : 1h 41mn
Overall bit rate                 : 2 174 Kbps
Encoded date                     : UTC 2011-11-09 21:13:23
Tagged date                      : UTC 2011-11-09 21:13:23
Writing application              : Yamb 2.1.0.0 

Video
ID                               : 1
Format                           : AVC
Format/Info                      : Advanced Video Codec
Format profile                   : Main@L3.0
Format settings, CABAC           : Yes
Format settings, ReFrames        : 1 frame
Codec ID                         : avc1
Codec ID/Info                    : Advanced Video Coding
Duration                         : 1h 41mn
Bit rate mode                    : Variable
Bit rate                         : 1 792 Kbps
Maximum bit rate                 : 7 104 Kbps
Width                            : 720 pixels
Height                           : 304 pixels
Display aspect ratio             : 2.35:1
Frame rate mode                  : Variable
Frame rate                       : 23.935 fps
Minimum frame rate               : 0.648 fps
Maximum frame rate               : 23.976 fps
Original frame rate              : 23.976 fps
Resolution                       : 8 bits
Colorimetry                      : 4:2:0
Scan type                        : Progressive
Bits/(Pixel*Frame)               : 0.342
Stream size                      : 1.27 GiB (82%)
Writing library                  : x264 core 65
Encoding settings                : cabac=1 / ref=1 / deblock=1:0:0 / analyse=0x1:0x111 / me=hex / subme=6 / psy_rd=1.0:0.0 / mixed_ref=0 / me_range=16 / chroma_me=1 / trellis=0 / 8x8dct=0 / cqm=0 / deadzone=21,11 / chroma_qp_offset=-2 / threads=3 / nr=0 / decimate=1 / mbaff=0 / bframes=0 / keyint=240 / keyint_min=24 / scenecut=40(pre) / rc=2pass / bitrate=1792 / ratetol=1.0 / qcomp=0.60 / qpmin=10 / qpmax=51 / qpstep=4 / cplxblur=20.0 / qblur=0.5 / ip_ratio=1.40 / aq=1:1.00
Encoded date                     : UTC 2011-10-30 23:03:51
Tagged date                      : UTC 2011-11-09 21:15:02
Color primaries                  : BT.601-6 525, BT.1358 525, BT.1700 NTSC, SMPTE 170M
Transfer characteristics         : BT.709-5, BT.1361
Matrix coefficients              : BT.601-6 525, BT.1358 525, BT.1700 NTSC, SMPTE 170M

Audio
ID                               : 2
Format                           : AAC
Format/Info                      : Advanced Audio Codec
Format version                   : Version 4
Format profile                   : LC
Format settings, SBR             : No
Codec ID                         : 40
Duration                         : 1h 41mn
Bit rate mode                    : Variable
Bit rate                         : 384 Kbps
Maximum bit rate                 : 601 Kbps
Channel(s)                       : 6 channels
Channel positions                : Front: L C R, Rear: L R, LFE
Sampling rate                    : 48.0 KHz
Stream size                      : 279 MiB (18%)
Encoded date                     : UTC 2011-11-09 21:14:14
Tagged date                      : UTC 2011-11-09 21:15:02

[img]http://img685.imageshack.us/img685/7439/reignoffire2002mp4aacbr.jpg[/img]